<?xml version="1.0" encoding="UTF-8"?>
<svg version="1.1" xmlns="http://www.w3.org/2000/svg" width="195" height="93">
<path d="M0 0 C3.86738872 2.03546775 6.3614711 4.97348055 8 9 C9.50860061 17.81951125 6.80021108 24.67846593 2 32 C-0.83162194 35.51305291 -3.81730316 38.80315784 -7 42 C-18.12664765 39.68430176 -29.09193143 36.03489829 -35.875 26.3125 C-37.7360906 20.83262213 -37.91593221 15.53228317 -35.9375 10.0625 C-33.31188915 7.2674949 -30.73473182 5.72464946 -27 5 C-25.30632433 5.15007253 -23.61733159 5.36189385 -21.9375 5.625 C-18.38071044 6.18057666 -18.38071044 6.18057666 -15.09765625 5 C-13.28435802 3.48529082 -13.28435802 3.48529082 -11 1 C-7.51096194 -0.74451903 -3.80658999 -0.57578672 0 0 Z " fill="#5D35FF" transform="translate(122,2)"/>
<path d="M0 0 C3.96020204 1.59648066 6.5916787 3.38751805 9 7 C9 7.99 9 8.98 9 10 C10.5159375 9.6596875 10.5159375 9.6596875 12.0625 9.3125 C17.57157234 8.87527204 20.93670481 10.53397447 25.375 13.6875 C27.67774799 16.96448752 28.16900362 20.08352488 28 24 C26.31471758 30.10914877 23.24180206 33.67217704 18 37 C9.97231263 41.0854033 1.89683023 41.74023853 -7 42 C-13.16264718 33.86530573 -17.90310867 24.49335782 -17.31640625 14.02734375 C-16.53020364 8.9898233 -14.72257589 5.78979225 -11.3125 2.0625 C-7.3970608 -0.37541498 -4.44730771 -0.9425893 0 0 Z " fill="#F43770" transform="translate(153,0)"/>
<path d="M0 0 C0.721875 0.00257812 1.44375 0.00515625 2.1875 0.0078125 C2.909375 0.00523438 3.63125 0.00265625 4.375 0 C6.1875 0.1328125 6.1875 0.1328125 7.1875 1.1328125 C7.25994053 3.15245449 7.27127188 5.17448374 7.25 7.1953125 C7.24097656 8.30003906 7.23195313 9.40476562 7.22265625 10.54296875 C7.21105469 11.39761719 7.19945312 12.25226562 7.1875 13.1328125 C10.8175 13.1328125 14.4475 13.1328125 18.1875 13.1328125 C18.17589844 12.27816406 18.16429688 11.42351563 18.15234375 10.54296875 C18.14332031 9.43824219 18.13429688 8.33351563 18.125 7.1953125 C18.11339844 6.09316406 18.10179688 4.99101562 18.08984375 3.85546875 C18.1875 1.1328125 18.1875 1.1328125 19.1875 0.1328125 C21 0 21 0 23.1875 0.0078125 C23.909375 0.00523438 24.63125 0.00265625 25.375 0 C27.1875 0.1328125 27.1875 0.1328125 28.1875 1.1328125 C28.30072434 3.55771621 28.35166875 5.95308112 28.35546875 8.37890625 C28.35879715 9.10521744 28.36212555 9.83152863 28.36555481 10.57984924 C28.37062675 12.11906296 28.37296305 13.6582877 28.37280273 15.19750977 C28.37498766 17.55698721 28.39313565 19.91599611 28.41210938 22.27539062 C28.41504352 23.76822756 28.41702817 25.26106673 28.41796875 26.75390625 C28.42515427 27.46228134 28.43233978 28.17065643 28.43974304 28.90049744 C28.41632337 33.90398913 28.41632337 33.90398913 26.1875 36.1328125 C23.1875 36.3828125 23.1875 36.3828125 20.1875 36.1328125 C18.1875 34.1328125 18.1875 34.1328125 17.9921875 31.3125 C18.01539062 30.22195312 18.03859375 29.13140625 18.0625 28.0078125 C18.08054687 26.91210938 18.09859375 25.81640625 18.1171875 24.6875 C18.14039062 23.84445313 18.16359375 23.00140625 18.1875 22.1328125 C14.5575 22.1328125 10.9275 22.1328125 7.1875 22.1328125 C7.21070313 22.97585937 7.23390625 23.81890625 7.2578125 24.6875 C7.28488281 26.33105469 7.28488281 26.33105469 7.3125 28.0078125 C7.33570313 29.09835938 7.35890625 30.18890625 7.3828125 31.3125 C7.1875 34.1328125 7.1875 34.1328125 5.1875 36.1328125 C2.1875 36.3828125 2.1875 36.3828125 -0.8125 36.1328125 C-3.28156968 33.66374282 -3.04897118 32.27007481 -3.06474304 28.90049744 C-3.05755753 28.19212234 -3.05037201 27.48374725 -3.04296875 26.75390625 C-3.04251053 26.02663834 -3.04205231 25.29937042 -3.0415802 24.55006409 C-3.03855836 23.01260751 -3.03067405 21.47515398 -3.01831055 19.93774414 C-3.00004573 17.57622515 -2.9978009 15.21509789 -2.99804688 12.85351562 C-2.99313203 11.36197576 -2.98730386 9.87043856 -2.98046875 8.37890625 C-2.97935593 7.66850693 -2.9782431 6.9581076 -2.97709656 6.22618103 C-2.91845934 0.21385262 -2.91845934 0.21385262 0 0 Z " fill="#FFFFFF" transform="translate(17.8125,0.8671875)"/>
<path d="M0 0 C1.216875 0.01289062 2.43375 0.02578125 3.6875 0.0390625 C6.71415724 0.34601123 8.45621139 0.78513212 11 2.375 C11.04241723 4.70794775 11.04092937 7.04202567 11 9.375 C10 10.375 10 10.375 7.49609375 10.47265625 C5.98208984 10.45525391 5.98208984 10.45525391 4.4375 10.4375 C3.42558594 10.42847656 2.41367188 10.41945313 1.37109375 10.41015625 C0.19740234 10.39275391 0.19740234 10.39275391 -1 10.375 C-1 11.035 -1 11.695 -1 12.375 C0.3303125 12.4678125 0.3303125 12.4678125 1.6875 12.5625 C6.43881868 13.72791779 8.49453464 16.39052293 11.375 20.1875 C12.38123725 23.70933038 12.04595663 26.92599112 11 30.375 C9.17978856 33.33443469 7.1595914 35.7952043 4 37.375 C-1.01570022 37.8749309 -6.22073639 38.34399251 -10.6875 35.6875 C-13 33.375 -13 33.375 -13.5625 30.8125 C-12.9068279 27.97125424 -12.43789817 26.97224363 -10 25.375 C-5.96543268 24.8297882 -2.76657447 25.97348392 1 27.375 C0.67 26.055 0.34 24.735 0 23.375 C-0.60328125 23.48199219 -1.2065625 23.58898437 -1.828125 23.69921875 C-2.62734375 23.81910156 -3.4265625 23.93898438 -4.25 24.0625 C-5.03890625 24.19011719 -5.8278125 24.31773438 -6.640625 24.44921875 C-9 24.375 -9 24.375 -11.328125 23.421875 C-13 21.375 -13 21.375 -13.09375 17.50390625 C-12.91826204 15.97902225 -12.71939577 14.45668818 -12.5 12.9375 C-12.42007813 12.17373047 -12.34015625 11.40996094 -12.2578125 10.62304688 C-11.80903472 7.13895451 -11.29694554 4.82532071 -9.34375 1.86328125 C-6.11794071 -0.18510765 -3.79490016 -0.08844047 0 0 Z " fill="#FFFFFF" transform="translate(66,-0.375)"/>
<path d="M0 0 C0.80373047 -0.03738281 1.60746094 -0.07476562 2.43554688 -0.11328125 C6.59389119 -0.17448337 9.45050511 0.01189439 12.796875 2.625 C16.23490889 6.3833476 17.2001864 9.32952753 17.3125 14.375 C16.56334531 18.01575176 15.07061732 20.64133808 12.375 23.25 C7.75032361 25.77255076 3.48294246 25.46117404 -1.6875 25.375 C-1.67589844 26.01308594 -1.66429687 26.65117188 -1.65234375 27.30859375 C-1.64332031 28.13488281 -1.63429688 28.96117188 -1.625 29.8125 C-1.61339844 30.63621094 -1.60179687 31.45992187 -1.58984375 32.30859375 C-1.6875 34.375 -1.6875 34.375 -2.6875 35.375 C-5.6875 35.5 -5.6875 35.5 -8.6875 35.375 C-10.39242881 33.67007119 -9.8155442 31.52965739 -9.82644653 29.25598145 C-9.8244223 28.54244507 -9.82239807 27.82890869 -9.8203125 27.09375 C-9.82126923 26.36506714 -9.82222595 25.63638428 -9.82321167 24.88562012 C-9.82389335 23.3422029 -9.82203988 21.79878283 -9.81787109 20.25537109 C-9.81252262 17.885026 -9.81781642 15.51487041 -9.82421875 13.14453125 C-9.82355797 11.64843708 -9.8222768 10.15234303 -9.8203125 8.65625 C-9.82233673 7.94271362 -9.82436096 7.22917725 -9.82644653 6.49401855 C-9.78990276 -1.12716839 -6.78408901 0.11687546 0 0 Z M-1.6875 8.375 C-1.6875 11.015 -1.6875 13.655 -1.6875 16.375 C-0.20843108 16.40189216 1.27077483 16.42134621 2.75 16.4375 C3.98556641 16.45490234 3.98556641 16.45490234 5.24609375 16.47265625 C7.30413938 16.60767348 7.30413938 16.60767348 8.3125 15.375 C8.5625773 12.91690002 8.5625773 12.91690002 8.3125 10.375 C6.55113645 8.19168311 6.55113645 8.19168311 4.3671875 8.1796875 C1.33984375 8.27734375 1.33984375 8.27734375 -1.6875 8.375 Z " fill="#FFFFFF" transform="translate(23.6875,46.625)"/>
<path d="M0 0 C0.02886984 3.97915159 0.04675406 7.95827653 0.0625 11.9375 C0.07087891 13.07380859 0.07925781 14.21011719 0.08789062 15.38085938 C0.09272461 17.00024414 0.09272461 17.00024414 0.09765625 18.65234375 C0.10551147 20.15269165 0.10551147 20.15269165 0.11352539 21.68334961 C0 24 0 24 -1 25 C-2.93707101 24.73281779 -4.87388801 24.46349049 -6.80859375 24.1796875 C-9.25995633 23.8878201 -9.25995633 23.8878201 -12.6875 24.625 C-16 25 -16 25 -18.6875 23.875 C-24.62829609 19.0581383 -24.62829609 19.0581383 -25.421875 14.6640625 C-25.66375198 10.18933844 -25.51759448 6.9910137 -22.625 3.4375 C-18.26099035 -0.61479467 -15.37130824 -0.05984145 -9.62890625 0.0625 C-0.49808312 -0.15457752 -0.49808312 -0.15457752 0 0 Z M-17 10 C-16.99077298 12.54713404 -16.99077298 12.54713404 -16 15 C-14.03241727 16.36020151 -14.03241727 16.36020151 -12 17 C-10.68 15.68 -9.36 14.36 -8 13 C-8.66 11.35 -9.32 9.7 -10 8 C-13.95457848 7.65176193 -13.95457848 7.65176193 -17 10 Z " fill="#FFFFFF" transform="translate(82,57)"/>
<path d="M0 0 C2.56721784 2.12712336 3.89644788 3.72831994 5.1875 6.8125 C4.96983633 10.51278236 4.83258959 12.16741041 2.1875 14.8125 C-0.6328125 15.2265625 -0.6328125 15.2265625 -3.9375 15.4375 C-5.03320312 15.51226562 -6.12890625 15.58703125 -7.2578125 15.6640625 C-8.52238281 15.73753906 -8.52238281 15.73753906 -9.8125 15.8125 C-8.75708856 17.09757296 -8.75708856 17.09757296 -6.34375 16.875 C-5.3434375 16.854375 -4.343125 16.83375 -3.3125 16.8125 C-1.47955624 16.77470735 0.3547539 16.76610136 2.1875 16.8125 C3.1875 17.8125 3.1875 17.8125 3.4375 20.25 C3.31375 21.5184375 3.31375 21.5184375 3.1875 22.8125 C-1.48741674 25.92911116 -6.33908993 25.4053925 -11.8125 24.8125 C-15.02946143 23.62375616 -17.11711546 21.95128305 -18.93359375 18.9765625 C-20.5481787 15.00109555 -20.46848524 11.01345598 -19.8125 6.8125 C-18.18056097 3.62664293 -15.84711525 1.59738054 -13 -0.5625 C-8.39210448 -1.87904158 -4.35571852 -1.83908115 0 0 Z M-9 6.75 C-9.598125 7.100625 -10.19625 7.45125 -10.8125 7.8125 C-10.8125 8.4725 -10.8125 9.1325 -10.8125 9.8125 C-8.1725 9.8125 -5.5325 9.8125 -2.8125 9.8125 C-3.1425 8.8225 -3.4725 7.8325 -3.8125 6.8125 C-6.70436786 5.47945302 -6.70436786 5.47945302 -9 6.75 Z " fill="#FFFFFF" transform="translate(131.8125,57.1875)"/>
<path d="M0 0 C2.32421875 0.12109375 2.32421875 0.12109375 5 1 C7.01953125 3.28515625 7.01953125 3.28515625 8.8125 6.0625 C9.41707031 6.98160156 10.02164063 7.90070312 10.64453125 8.84765625 C11.09183594 9.55792969 11.53914063 10.26820312 12 11 C12.31453125 10.28972656 12.6290625 9.57945313 12.953125 8.84765625 C13.38109375 7.92855469 13.8090625 7.00945313 14.25 6.0625 C14.87648438 4.68771484 14.87648438 4.68771484 15.515625 3.28515625 C17 1 17 1 18.984375 0.05859375 C21 0 21 0 24 2 C23.47164917 6.93930327 22.42054898 10.84526754 20.3125 15.3359375 C19.77882813 16.48191406 19.24515625 17.62789062 18.6953125 18.80859375 C18.13585937 19.98550781 17.57640625 21.16242188 17 22.375 C16.43409519 23.58686603 15.8689838 24.79910289 15.3046875 26.01171875 C11.17034248 34.82965752 11.17034248 34.82965752 10 36 C7.5625 36.1875 7.5625 36.1875 5 36 C4.34 35.34 3.68 34.68 3 34 C3.2194245 31.51318898 3.75129952 29.47616392 4.90917969 27.25927734 C5.96345754 25.12525861 6.64427178 23.35981241 7 21 C5.90517546 17.85371528 4.0566795 15.39549412 2.0625 12.75 C1.06034294 11.37983355 0.07131584 9.99993671 -0.90234375 8.609375 C-1.35085693 8.01092773 -1.79937012 7.41248047 -2.26147461 6.79589844 C-3 5 -3 5 -2.19360352 2.83691406 C-1 1 -1 1 0 0 Z " fill="#FFFFFF" transform="translate(87,56)"/>
<path d="M0 0 C2.125 1.1875 2.125 1.1875 3.125 4.1875 C1.6875 6.375 1.6875 6.375 0.125 8.1875 C-4.33 7.1975 -4.33 7.1975 -8.875 6.1875 C-8.875 6.8475 -8.875 7.5075 -8.875 8.1875 C-8.18792969 8.27386719 -7.50085938 8.36023438 -6.79296875 8.44921875 C0.54792379 9.5939359 0.54792379 9.5939359 3.3125 12.4375 C4.31443171 15.82865349 4.15210772 17.8127175 3.125 21.1875 C1.54433106 23.18051736 0.39413298 24.05293351 -1.875 25.1875 C-7.55483816 25.71024617 -12.23205072 25.90185943 -16.875 22.1875 C-16.545 20.2075 -16.215 18.2275 -15.875 16.1875 C-12.245 16.5175 -8.615 16.8475 -4.875 17.1875 C-6.31875 16.56875 -7.7625 15.95 -9.25 15.3125 C-12.02726256 14.12224462 -13.72233158 13.34016842 -15.875 11.1875 C-16.44333559 4.02647158 -16.44333559 4.02647158 -14.5625 1.25 C-10.01750858 -1.61166126 -5.03206033 -1.42210401 0 0 Z " fill="#FFFFFF" transform="translate(176.875,56.8125)"/>
<path d="M0 0 C2.5625 0.1875 2.5625 0.1875 4.5625 2.1875 C4.78955078 4.89306641 4.78955078 4.89306641 4.7578125 8.2890625 C4.74814453 10.10664062 4.74814453 10.10664062 4.73828125 11.9609375 C4.72152344 13.23195313 4.70476563 14.50296875 4.6875 15.8125 C4.67847656 17.09125 4.66945313 18.37 4.66015625 19.6875 C4.63652303 22.85435167 4.60357629 26.02083424 4.5625 29.1875 C5.8825 29.1875 7.2025 29.1875 8.5625 29.1875 C9.1875 31.5 9.1875 31.5 9.5625 34.1875 C8.9025 35.1775 8.2425 36.1675 7.5625 37.1875 C6.10304712 37.10041331 4.64484132 36.99223093 3.1875 36.875 C1.96933594 36.78798828 1.96933594 36.78798828 0.7265625 36.69921875 C-1.4375 36.1875 -1.4375 36.1875 -3.4375 33.1875 C-3.68041992 29.92529297 -3.68041992 29.92529297 -3.66796875 25.9296875 C-3.66751053 25.22603058 -3.66705231 24.52237366 -3.6665802 23.7973938 C-3.66356325 22.31299143 -3.65569356 20.82859207 -3.64331055 19.34423828 C-3.62501215 17.0640145 -3.62280121 14.78419591 -3.62304688 12.50390625 C-3.58136005 0.27548923 -3.58136005 0.27548923 0 0 Z " fill="#FFFFFF" transform="translate(47.4375,44.8125)"/>
<path d="M0 0 C2.89119688 0.68080185 2.89119688 0.68080185 6.375 -0.0625 C9.75 -0.5 9.75 -0.5 12.75 1.5 C12.42 3.81 12.09 6.12 11.75 8.5 C8.78 8.5 5.81 8.5 2.75 8.5 C2.77320313 9.55960938 2.79640625 10.61921875 2.8203125 11.7109375 C2.83906944 13.0989513 2.85726972 14.4869727 2.875 15.875 C2.89175781 16.57367188 2.90851563 17.27234375 2.92578125 17.9921875 C2.94344267 19.82897486 2.85303261 21.66601963 2.75 23.5 C0.75 25.5 0.75 25.5 -1.8125 25.6875 C-4.25 25.5 -4.25 25.5 -5.25 24.5 C-5.33726223 22.71928754 -5.35699041 20.9351686 -5.34765625 19.15234375 C-5.34443359 18.07275391 -5.34121094 16.99316406 -5.33789062 15.88085938 C-5.32951172 14.74455078 -5.32113281 13.60824219 -5.3125 12.4375 C-5.30798828 11.29732422 -5.30347656 10.15714844 -5.29882812 8.98242188 C-5.28699747 6.15489649 -5.2705141 3.3274736 -5.25 0.5 C-2.25 -0.5 -2.25 -0.5 0 0 Z " fill="#FFFFFF" transform="translate(145.25,56.5)"/>
</svg>
